<svg fill="none" height="512" viewBox="0 0 24 24" width="512" xmlns="http://www.w3.org/2000/svg"><path d="m12 1.25c-5.93706 0-10.75 4.81294-10.75 10.75 0 5.9371 4.81294 10.75 10.75 10.75 5.9371 0 10.75-4.8129 10.75-10.75 0-5.93706-4.8129-10.75-10.75-10.75z" fill="#f44336"/><g clip-rule="evenodd" fill-rule="evenodd"><path d="m14.25 8c.4142 0 .75.33579.75.75v6.5c0 .4142-.3358.75-.75.75s-.75-.3358-.75-.75v-6.5c0-.41421.3358-.75.75-.75z" fill="#fafafa"/><path d="m12 1.25v21.5c-5.93706 0-10.75-4.8129-10.75-10.75 0-5.93706 4.81294-10.75 10.75-10.75z" fill="#cc382d"/><path d="m9.75 8c.4142 0 .75.33579.75.75v6.5c0 .4142-.3358.75-.75.75-.41421 0-.75-.3358-.75-.75v-6.5c0-.41421.33579-.75.75-.75z" fill="#e5e6e8"/></g></svg>