<svg fill="none" height="512" viewBox="0 0 24 24" width="512" xmlns="http://www.w3.org/2000/svg"><path d="m12 1.25c-5.93706 0-10.75 4.81294-10.75 10.75 0 5.9371 4.81294 10.75 10.75 10.75 5.9371 0 10.75-4.8129 10.75-10.75 0-5.93706-4.8129-10.75-10.75-10.75z" fill="#2196f3"/><path clip-rule="evenodd" d="m22.75 12h-21.5c0 5.9371 4.81294 10.75 10.75 10.75 5.9371 0 10.75-4.8129 10.75-10.75z" fill="#1e81d0" fill-rule="evenodd"/><path d="m8.75 8c0-.41421-.33579-.75-.75-.75s-.75.33579-.75.75v8c0 .4142.33579.75.75.75s.75-.3358.75-.75z" fill="#fff"/><path d="m15.3249 7.32403c.2598.12489.4251.38767.4251.67598v7.99999c0 .2883-.1653.5511-.4251.676-.2599.1249-.5683.0898-.7934-.0903l-5.00002-4c-.17791-.1424-.28148-.3579-.28148-.5857s.10357-.4433.28148-.5856l5.00002-4.00004c.2251-.18011.5335-.21522.7934-.09033z" fill="#fff"/><path clip-rule="evenodd" d="m8.75 12h-1.5v4c0 .4142.33579.75.75.75s.75-.3358.75-.75zm.5 0h6.5v4c0 .2883-.1653.5511-.4251.676-.2599.1249-.5683.0898-.7934-.0903l-5.00002-4c-.17791-.1424-.28148-.3579-.28148-.5857z" fill="#e5e6e8" fill-rule="evenodd"/></svg>