<svg fill="none" height="512" viewBox="0 0 24 24" width="512" xmlns="http://www.w3.org/2000/svg"><path d="m12 1.25c-5.93706 0-10.75 4.81294-10.75 10.75 0 5.9371 4.81294 10.75 10.75 10.75 5.9371 0 10.75-4.8129 10.75-10.75 0-5.93706-4.8129-10.75-10.75-10.75z" fill="#2196f3"/><path clip-rule="evenodd" d="m22.75 12h-21.5c0 5.9371 4.81294 10.75 10.75 10.75 5.9371 0 10.75-4.8129 10.75-10.75z" fill="#1e81d0" fill-rule="evenodd"/><path d="m7.71299 6.3071c.28025-.11609.60284-.05192.81734.16258l4.99997 5.00002c.2929.2929.2929.7677 0 1.0606l-4.99997 5c-.2145.2145-.53709.2787-.81734.1626-.28026-.1161-.46299-.3895-.46299-.6929v-9.99999c0-.30335.18273-.57683.46299-.69291z" fill="#fff"/><path d="m16.25 7c0-.41421-.3358-.75-.75-.75s-.75.33579-.75.75v10c0 .4142.3358.75.75.75s.75-.3358.75-.75z" fill="#fff"/><path clip-rule="evenodd" d="m14.75 12h1.5v5c0 .4142-.3358.75-.75.75s-.75-.3358-.75-.75zm-1 0c0 .1919-.0732.3839-.2197.5303l-4.99997 5c-.2145.2145-.53709.2787-.81734.1626-.28026-.1161-.46299-.3895-.46299-.6929v-5z" fill="#e5e6e8" fill-rule="evenodd"/></svg>